<svg width="52" height="79" viewBox="0 0 52 79" fill="none" xmlns="http://www.w3.org/2000/svg">
<path d="M0.5 14H51.5V68H0.5V14Z" fill="#EEF4FD"/>
<path d="M0.5 66H51.5V66.36C51.5 70.6895 51.5 72.8543 50.6842 74.5195C49.9031 76.1139 48.6139 77.4031 47.0195 78.1842C45.3543 79 43.1895 79 38.86 79H13.14C8.81047 79 6.6457 79 4.98049 78.1842C3.38611 77.4031 2.09686 76.1139 1.31578 74.5195C0.5 72.8543 0.5 70.6895 0.5 66.36V66Z" fill="#DEE5F0"/>
<rect x="0.5" width="51" height="25" rx="8" fill="#20AE94"/>
<path d="M4.5 34C4.5 31.7909 6.29086 30 8.5 30H44.5C46.7091 30 48.5 31.7909 48.5 34V37C48.5 39.2091 46.7091 41 44.5 41H8.5C6.29086 41 4.5 39.2091 4.5 37V34Z" fill="#DEE5F0"/>
<rect x="4.5" y="44" width="12" height="12" rx="4" fill="#DEE5F0"/>
<rect x="20.5" y="44" width="12" height="12" rx="4" fill="#DEE5F0"/>
<rect x="36.5" y="44" width="12" height="12" rx="4" fill="#DEE5F0"/>
<path d="M15 72C15 73.6569 13.6569 75 12 75C10.3431 75 9 73.6569 9 72C9 70.3431 10.3431 69 12 69C13.6569 69 15 70.3431 15 72Z" fill="#BDCBE1"/>
<path d="M25 72C25 73.6569 23.6569 75 22 75C20.3431 75 19 73.6569 19 72C19 70.3431 20.3431 69 22 69C23.6569 69 25 70.3431 25 72Z" fill="#BDCBE1"/>
<path d="M35 72C35 73.6569 33.6569 75 32 75C30.3431 75 29 73.6569 29 72C29 70.3431 30.3431 69 32 69C33.6569 69 35 70.3431 35 72Z" fill="#BDCBE1"/>
<path d="M45 72C45 73.6569 43.6569 75 42 75C40.3431 75 39 73.6569 39 72C39 70.3431 40.3431 69 42 69C43.6569 69 45 70.3431 45 72Z" fill="#BDCBE1"/>
<g opacity="0.6">
<rect x="0.5" y="14" width="51" height="65" rx="8" fill="#20AE94" fill-opacity="0.8"/>
</g>
</svg>
